<svg xmlns="http://www.w3.org/2000/svg" xmlns:xlink="http://www.w3.org/1999/xlink" viewBox="0 0 90.45 166.75"><defs><style>.cls-1{isolation:isolate;}.cls-2{fill:url(#linear-gradient);}.cls-3{mix-blend-mode:multiply;fill:url(#linear-gradient-2);}.cls-4{fill:url(#linear-gradient-3);}.cls-5{fill:url(#linear-gradient-4);}.cls-6{fill:url(#linear-gradient-5);}.cls-7{fill:url(#linear-gradient-6);}.cls-8{fill:#fff;}.cls-9{fill:url(#linear-gradient-7);}</style><linearGradient id="linear-gradient" x1="47.21" y1="132.5" x2="43.46" y2="-5.67" gradientUnits="userSpaceOnUse"><stop offset="0" stop-color="#6441c7"/><stop offset="0.09" stop-color="#505bd2"/><stop offset="0.29" stop-color="#2591ea"/><stop offset="0.44" stop-color="#0ab3f8"/><stop offset="0.52" stop-color="#00c0fe"/><stop offset="0.56" stop-color="#08bafc"/><stop offset="0.62" stop-color="#20a8f7"/><stop offset="0.7" stop-color="#458cef"/><stop offset="0.8" stop-color="#7a64e3"/><stop offset="0.9" stop-color="#bc32d5"/><stop offset="1" stop-color="#ff00c6"/></linearGradient><linearGradient id="linear-gradient-2" x1="64.8" y1="21.86" x2="98.44" y2="41.48" gradientTransform="translate(-30.19 45.12) rotate(-6.03)" gradientUnits="userSpaceOnUse"><stop offset="0" stop-color="#3a3f7f"/><stop offset="0.26" stop-color="#676b9c" stop-opacity="0.77"/><stop offset="0.82" stop-color="#d9dae6" stop-opacity="0.19"/><stop offset="1" stop-color="#fff" stop-opacity="0"/></linearGradient><linearGradient id="linear-gradient-3" x1="-8.42" y1="216.91" x2="-35.54" y2="362.34" gradientTransform="translate(191.11 -162.89) rotate(28.99)" gradientUnits="userSpaceOnUse"><stop offset="0" stop-color="#363d40"/><stop offset="1" stop-color="#090b1d"/></linearGradient><linearGradient id="linear-gradient-4" x1="-25.84" y1="216.84" x2="-25.84" y2="252.29" gradientTransform="translate(191.11 -162.89) rotate(28.99)" gradientUnits="userSpaceOnUse"><stop offset="0.01" stop-color="#ff00c6"/><stop offset="0.26" stop-color="#eb10d1"/><stop offset="1" stop-color="#b43bef"/></linearGradient><linearGradient id="linear-gradient-5" x1="-81.92" y1="256.12" x2="-81.92" y2="230.86" gradientTransform="matrix(0.79, 0.43, -0.43, 0.78, 221.65, -120.52)" gradientUnits="userSpaceOnUse"><stop offset="0" stop-color="#ff9411"/><stop offset="1" stop-color="#ffd71d"/></linearGradient><linearGradient id="linear-gradient-6" x1="15.62" y1="112.02" x2="-16.49" y2="284.26" gradientTransform="translate(105.26 -109.09) rotate(16.74)" xlink:href="#linear-gradient-3"/><linearGradient id="linear-gradient-7" x1="-19.8" y1="262.2" x2="-8.32" y2="262.2" gradientTransform="translate(105.26 -109.09) rotate(16.74)" xlink:href="#linear-gradient-3"/></defs><title>Asset 3</title><g class="cls-1"><g id="Layer_2" data-name="Layer 2"><g id="Layer_1-2" data-name="Layer 1"><path class="cls-2" d="M59.92,89.7c-4.7,6-13.09,10-19.89,11,14.49-7.41,23.42-25.82,25-40.51-4.43,3.1-10.77,6.45-16.33,5.89C59,61.59,66.32,51.59,71.1,41.63c.26-.54.54-1.18.81-1.79,3.67-8.34,6.52-17.11,9.4-25.77C84.66,4,90.45,1.26,90.45,1.26c-17-3-36.42-.93-50,10.41C28.6,21.61,24.89,36,25.31,51.13a32.33,32.33,0,0,1-1-22.17c-3.84,5.28-4.54,13.8-4.06,20.1a60.36,60.36,0,0,1-1-15.13C11.13,50,10.29,66.59,13.36,84,8.65,74.72,7.7,63.77,7.44,53.5A131.78,131.78,0,0,0,2.16,96.43c.36,7.57,2.54,14.14,5.67,21a41.81,41.81,0,0,0-7.83,0c6.33,4,12.5,8.94,15.78,15.93l1.4,1c8.43-7.27,16.49-14.71,27.33-17.19,0,0-2.36-2.06-8-2.09C39.84,112.37,55.36,102.65,59.92,89.7Z"/><path class="cls-3" d="M65.4,17.92c-7.53,8.36-13.8,17.79-19.84,27.29a133.7,133.7,0,0,0-15.93,34.7c-3.94,13.45-6.32,27.24-9.67,40.81-1.06,4.31-2.39,8.64-3.71,13l.93.66c8.43-7.27,16.49-14.71,27.33-17.19,0,0-2.36-2.06-8-2.09,3.35-2.73,18.87-12.45,23.43-25.4-4.7,6-13.09,10-19.89,11,14.49-7.41,23.42-25.82,25-40.51-4.43,3.1-10.77,6.45-16.33,5.89C59,61.59,66.32,51.59,71.1,41.63c.26-.54.54-1.18.81-1.79,3.67-8.34,6.52-17.11,9.4-25.77C84.66,4,90.45,1.26,90.45,1.26,77.31,4.27,72,10.61,65.4,17.92Z"/><path class="cls-4" d="M42.5,21.73a33.41,33.41,0,0,0-5.64,18.56c.21,6,1.26,12.81-.17,17.4-3.28,10.48-7,21.07-9.91,31.55C22.26,105.6,16.64,125.64,12.07,137c1.22.23,6.42,1.82,7.64,2,3-17.23,8-50.46,17.51-74.25C40.69,56,44.24,55.39,47.5,54,54.9,50.75,62,45.39,66,38.76c4.25-7,6.47-14.23,8.35-22.57A26.92,26.92,0,0,1,79,5.63C65.69,5.36,50.56,10.35,42.5,21.73Z"/><path class="cls-5" d="M45.74,22.38C52.82,12.29,67.08,9.39,70,12.27S71.77,26,64.3,36.12c-4,5.41-13.75,14.05-19.63,10.49C38,42.57,40,30.56,45.74,22.38Z"/><path class="cls-6" d="M60.41,36.88C56.67,42.46,50,45.6,46.13,43.63,40.83,40.94,43,31.18,46,26.56c3.95-6.12,10.78-9.4,15.62-6.44C65.41,22.46,64.38,31,60.41,36.88Z"/><path class="cls-7" d="M19.88,141,15.4,139.6l-4.47-1.37a16.6,16.6,0,0,1-6.41,7.21,101,101,0,0,1,2.87,21.31A98.87,98.87,0,0,1,21.33,150.6,17,17,0,0,1,19.88,141Z"/><path class="cls-8" d="M16.12,148.11a3.07,3.07,0,0,1-3.85,2.11,3.16,3.16,0,0,1-2.07-3.92,3.07,3.07,0,0,1,3.85-2.11A3.15,3.15,0,0,1,16.12,148.11Z"/><polygon class="cls-9" points="22.26 137.85 11.3 134.49 10.25 138.03 21.21 141.39 22.26 137.85"/></g></g></g></svg>